grf
version=1
nRows=56
nColumns=19
inDegrees=yes
endheader
time	ground_force_1_vx	ground_force_1_vy	ground_force_1_vz	ground_force_1_px	ground_force_1_py	ground_force_1_pz	ground_moment_1_mx	ground_moment_1_my	ground_moment_1_mz	ground_force_2_vx	ground_force_2_vy	ground_force_2_vz	ground_force_2_px	ground_force_2_py	ground_force_2_pz	ground_moment_2_mx	ground_moment_2_my	ground_moment_2_mz
0.790000	0.000000	0.000000	0.000000	0.000000	0.000000	0.000000	0.000000	0.000000	0.000000	39.722488	549.575134	-15.115797	0.170014	0.000000	0.261411	-0.000000	0.927576	0.000000
0.791000	0.000000	0.000000	0.000000	0.000000	0.000000	0.000000	0.000000	0.000000	0.000000	38.358685	551.224731	-14.722021	0.171544	0.000000	0.261010	-0.000000	0.852927	0.000000
0.792000	0.000000	0.000000	0.000000	0.000000	0.000000	0.000000	0.000000	0.000000	0.000000	38.042439	547.843018	-14.938599	0.169068	0.000000	0.261639	-0.000000	1.010027	0.000000
0.793000	0.000000	0.000000	0.000000	0.000000	0.000000	0.000000	0.000000	0.000000	0.000000	37.528542	552.874329	-14.249493	0.171081	0.000000	0.260367	-0.000000	0.829487	0.000000
0.794000	0.000000	0.000000	0.000000	0.000000	0.000000	0.000000	0.000000	0.000000	0.000000	37.172768	543.059204	-13.816339	0.169358	0.000000	0.260821	-0.000000	0.798820	0.000000
0.795000	0.000000	0.000000	0.000000	0.000000	0.000000	0.000000	0.000000	0.000000	0.000000	37.034409	545.863525	-13.934471	0.168929	0.000000	0.260607	-0.000000	0.840544	0.000000
0.796000	0.000000	0.000000	0.000000	0.000000	0.000000	0.000000	0.000000	0.000000	0.000000	36.639103	546.935730	-13.993538	0.168036	0.000000	0.260827	-0.000000	0.874356	0.000000
0.797000	0.000000	0.000000	0.000000	0.000000	0.000000	0.000000	0.000000	0.000000	0.000000	36.026382	545.781006	-13.343810	0.168127	0.000000	0.261229	-0.000000	0.805296	0.000000
0.798000	0.000000	0.000000	0.000000	0.000000	0.000000	0.000000	0.000000	0.000000	0.000000	35.591545	545.863586	-12.969723	0.168623	0.000000	0.260581	-0.000000	0.749633	0.000000
0.799000	0.000000	0.000000	0.000000	0.000000	0.000000	0.000000	0.000000	0.000000	0.000000	35.393890	542.894287	-13.068166	0.166612	0.000000	0.260503	-0.000000	0.706494	0.000000
0.800000	0.000000	0.000000	0.000000	0.000000	0.000000	0.000000	0.000000	0.000000	0.000000	34.879997	541.904541	-12.910656	0.167724	0.000000	0.260956	-0.000000	0.691349	0.000000
0.801000	0.000000	0.000000	0.000000	0.000000	0.000000	0.000000	0.000000	0.000000	0.000000	33.674313	545.451172	-12.418437	0.167603	0.000000	0.260112	-0.000000	0.682168	0.000000
0.802000	0.000000	0.000000	0.000000	0.000000	0.000000	0.000000	0.000000	0.000000	0.000000	33.575485	542.811768	-12.575947	0.166586	0.000000	0.260391	-0.000000	0.762113	0.000000
0.803000	0.000000	0.000000	0.000000	0.000000	0.000000	0.000000	0.000000	0.000000	0.000000	32.982529	539.842529	-11.650576	0.166412	0.000000	0.260730	-0.000000	0.576160	0.000000
0.804000	0.000000	0.000000	0.000000	0.000000	0.000000	0.000000	0.000000	0.000000	0.000000	32.587223	541.409607	-11.867152	0.166916	0.000000	0.260517	-0.000000	0.652867	0.000000
0.805000	0.000000	0.000000	0.000000	0.000000	0.000000	0.000000	0.000000	0.000000	0.000000	31.994265	540.584839	-11.571821	0.166234	0.000000	0.260562	-0.000000	0.536876	0.000000
0.806000	0.000000	0.000000	0.000000	0.000000	0.000000	0.000000	0.000000	0.000000	0.000000	32.369804	534.151367	-12.162483	0.164409	0.000000	0.261017	-0.000000	0.621772	0.000000
0.807000	0.000000	0.000000	0.000000	0.000000	0.000000	0.000000	0.000000	0.000000	0.000000	31.678020	532.914185	-11.709641	0.165550	0.000000	0.261477	-0.000000	0.480184	0.000000
0.808000	0.000000	0.000000	0.000000	0.000000	0.000000	0.000000	0.000000	0.000000	0.000000	30.828114	533.326599	-12.300304	0.163198	0.000000	0.260468	-0.000000	0.666294	0.000000
0.809000	0.000000	0.000000	0.000000	0.000000	0.000000	0.000000	0.000000	0.000000	0.000000	30.314215	531.347046	-12.044351	0.163326	0.000000	0.260604	-0.000000	0.548662	0.000000
0.810000	0.000000	0.000000	0.000000	0.000000	0.000000	0.000000	0.000000	0.000000	0.000000	30.156094	532.006897	-11.709641	0.164473	0.000000	0.260150	-0.000000	0.453711	0.000000
0.811000	0.000000	0.000000	0.000000	0.000000	0.000000	0.000000	0.000000	0.000000	0.000000	28.831821	529.532532	-11.906529	0.161480	0.000000	0.261236	-0.000000	0.665912	0.000000
0.812000	0.000000	0.000000	0.000000	0.000000	0.000000	0.000000	0.000000	0.000000	0.000000	28.594639	529.367554	-11.906530	0.162724	0.000000	0.260432	-0.000000	0.546837	0.000000
0.813000	0.000000	0.000000	0.000000	0.000000	0.000000	0.000000	0.000000	0.000000	0.000000	28.080742	530.769714	-11.689953	0.163445	0.000000	0.259713	-0.000000	0.432819	0.000000
0.814000	0.000000	0.000000	0.000000	0.000000	0.000000	0.000000	0.000000	0.000000	0.000000	26.361162	531.429565	-12.713769	0.163339	0.000000	0.260815	-0.000000	0.661091	0.000000
0.815000	0.000000	0.000000	0.000000	0.000000	0.000000	0.000000	0.000000	0.000000	0.000000	26.025152	529.367554	-12.004973	0.162434	0.000000	0.261508	-0.000000	0.542018	0.000000
0.816000	0.000000	0.000000	0.000000	0.000000	0.000000	0.000000	0.000000	0.000000	0.000000	26.005386	527.965332	-12.083728	0.161535	0.000000	0.260258	-0.000000	0.522557	0.000000
0.817000	0.000000	0.000000	0.000000	0.000000	0.000000	0.000000	0.000000	0.000000	0.000000	24.977594	533.326599	-11.985285	0.163424	0.000000	0.260051	-0.000000	0.516345	0.000000
0.818000	0.000000	0.000000	0.000000	0.000000	0.000000	0.000000	0.000000	0.000000	0.000000	25.491491	527.717957	-13.009100	0.160518	0.000000	0.261273	-0.000000	0.349782	0.000000
0.819000	0.000000	0.000000	0.000000	0.000000	0.000000	0.000000	0.000000	0.000000	0.000000	25.827501	522.356750	-11.630888	0.158770	0.000000	0.260302	-0.000000	0.207925	0.000000
0.820000	0.000000	0.000000	0.000000	0.000000	0.000000	0.000000	0.000000	0.000000	0.000000	24.779942	521.614441	-12.280616	0.159834	0.000000	0.260613	-0.000000	0.375673	0.000000
0.821000	0.000000	0.000000	0.000000	0.000000	0.000000	0.000000	0.000000	0.000000	0.000000	23.969564	529.202576	-11.434000	0.160463	0.000000	0.260755	-0.000000	0.363348	0.000000
0.822000	0.000000	0.000000	0.000000	0.000000	0.000000	0.000000	0.000000	0.000000	0.000000	23.198717	532.171875	-11.296178	0.163529	0.000000	0.260167	-0.000000	0.177377	0.000000
0.823000	0.000000	0.000000	0.000000	0.000000	0.000000	0.000000	0.000000	0.000000	0.000000	22.645292	529.862427	-11.906529	0.163196	0.000000	0.259105	-0.000000	0.328960	0.000000
0.824000	0.000000	0.000000	0.000000	0.000000	0.000000	0.000000	0.000000	0.000000	0.000000	22.249987	521.449463	-11.985285	0.159751	0.000000	0.260545	-0.000000	0.370827	0.000000
0.825000	0.000000	0.000000	0.000000	0.000000	0.000000	0.000000	0.000000	0.000000	0.000000	21.933741	517.737854	-11.906530	0.160470	0.000000	0.260547	-0.000000	0.301076	0.000000
0.826000	0.000000	0.000000	0.000000	0.000000	0.000000	0.000000	0.000000	0.000000	0.000000	20.668764	524.831177	-11.118979	0.159916	0.000000	0.260101	-0.000000	0.273664	0.000000
0.827000	0.000000	0.000000	0.000000	0.000000	0.000000	0.000000	0.000000	0.000000	0.000000	21.241957	519.469971	-11.945907	0.157983	0.000000	0.260246	-0.000000	0.331705	0.000000
0.828000	0.000000	0.000000	0.000000	0.000000	0.000000	0.000000	0.000000	0.000000	0.000000	20.392050	517.985352	-11.374932	0.157881	0.000000	0.260241	-0.000000	0.201988	0.000000
0.829000	0.000000	0.000000	0.000000	0.000000	0.000000	0.000000	0.000000	0.000000	0.000000	19.384022	518.810120	-11.059913	0.158778	0.000000	0.260365	-0.000000	0.162350	0.000000
0.830000	0.000000	0.000000	0.000000	0.000000	0.000000	0.000000	0.000000	0.000000	0.000000	18.395758	524.171265	-10.843336	0.159599	0.000000	0.259748	-0.000000	0.229217	0.000000
0.831000	0.000000	0.000000	0.000000	0.000000	0.000000	0.000000	0.000000	0.000000	0.000000	18.435287	518.067810	-11.178045	0.158012	0.000000	0.260230	-0.000000	0.157489	0.000000
0.832000	0.000000	0.000000	0.000000	0.000000	0.000000	0.000000	0.000000	0.000000	0.000000	17.348198	519.387512	-11.178046	0.159164	0.000000	0.260268	-0.000000	0.205272	0.000000
0.833000	0.000000	0.000000	0.000000	0.000000	0.000000	0.000000	0.000000	0.000000	0.000000	16.952892	516.088318	-10.961469	0.156246	0.000000	0.260136	-0.000000	0.071371	0.000000
0.834000	0.000000	0.000000	0.000000	0.000000	0.000000	0.000000	0.000000	0.000000	0.000000	16.458761	516.253235	-11.433999	0.156950	0.000000	0.259959	-0.000000	0.204112	0.000000
0.835000	0.000000	0.000000	0.000000	0.000000	0.000000	0.000000	0.000000	0.000000	0.000000	15.529793	515.758362	-11.079601	0.157559	0.000000	0.260509	-0.000000	0.214977	0.000000
0.836000	0.000000	0.000000	0.000000	0.000000	0.000000	0.000000	0.000000	0.000000	0.000000	14.462468	516.253235	-11.158358	0.156640	0.000000	0.259600	-0.000000	0.074504	0.000000
0.837000	0.000000	0.000000	0.000000	0.000000	0.000000	0.000000	0.000000	0.000000	0.000000	13.829979	518.810120	-10.744892	0.156876	0.000000	0.259897	-0.000000	0.010662	0.000000
0.838000	0.000000	0.000000	0.000000	0.000000	0.000000	0.000000	0.000000	0.000000	0.000000	13.217256	519.222473	-10.548005	0.157983	0.000000	0.259239	0.000000	-0.105898	-0.000000
0.839000	0.000000	0.000000	0.000000	0.000000	0.000000	0.000000	0.000000	0.000000	0.000000	12.228992	515.263489	-10.390495	0.157378	0.000000	0.260169	0.000000	-0.010201	-0.000000
0.840000	0.000000	0.000000	0.000000	0.000000	0.000000	0.000000	0.000000	0.000000	0.000000	11.339556	519.882324	-10.449562	0.157930	0.000000	0.258982	0.000000	-0.006749	-0.000000
0.841000	0.000000	0.000000	0.000000	0.000000	0.000000	0.000000	0.000000	0.000000	0.000000	10.983780	514.191223	-10.193607	0.156678	0.000000	0.260255	0.000000	-0.101479	-0.000000
0.842000	0.000000	0.000000	0.000000	0.000000	0.000000	0.000000	0.000000	0.000000	0.000000	9.916455	518.315247	-10.292051	0.157721	0.000000	0.259232	0.000000	-0.068673	-0.000000
0.843000	0.000000	0.000000	0.000000	0.000000	0.000000	0.000000	0.000000	0.000000	0.000000	9.244436	512.294189	-10.055787	0.154989	0.000000	0.259273	0.000000	-0.147264	-0.000000
0.844000	0.000000	0.000000	0.000000	0.000000	0.000000	0.000000	0.000000	0.000000	0.000000	9.046783	514.273743	-10.095163	0.155722	0.000000	0.260119	0.000000	-0.130657	-0.000000
0.845000	0.000000	0.000000	0.000000	0.000000	0.000000	0.000000	0.000000	0.000000	0.000000	8.414295	511.386902	-10.587382	0.156817	0.000000	0.260123	0.000000	-0.215368	-0.000000
